<?xml version="1.0" encoding="utf-8"?>
<!-- Generator: Adobe Illustrator 18.0.0, SVG Export Plug-In . SVG Version: 6.00 Build 0)  -->
<!DOCTYPE svg PUBLIC "-//W3C//DTD SVG 1.1//EN" "http://www.w3.org/Graphics/SVG/1.1/DTD/svg11.dtd">
<svg version="1.1" id="Layer_1" xmlns="http://www.w3.org/2000/svg" xmlns:xlink="http://www.w3.org/1999/xlink" x="0px" y="0px"
	 viewBox="0 0 482.6 252" style="enable-background:new 0 0 482.6 252;" xml:space="preserve">
<style type="text/css">
	.st0{fill:#A37E58;}
	.st1{fill:#1C478A;}
</style>
<g>
	<rect y="226.4" class="st0" width="482.6" height="1.9"/>
	<path class="st1" d="M82.2,85.4C77,86.2,72,86,68.3,85.1c-0.1,0-0.3,0-0.4-0.1c-1.3-0.4-2.6-0.6-4-0.6c-0.6,0-1.1,0-1.6,0.1
		c-1.1,0.1-2.3,0.4-3.6,0.9c-0.2,0.1-0.3,0.1-0.5,0.2c-0.2,0.1-0.5,0.2-0.7,0.3c-0.4,0.2-0.8,0.4-1.2,0.7c-2.2,1.3-4.4,3.2-6.3,5.6
		c-3.4,4.3-7.9,18.1-15.6,15.8c6.8,2.9,9.1-2.9,12.5-5.6c-0.4,2.6-0.1,5.2,0.8,7.5c0,15-9.7,21-9.7,21l0,0c0,0,0,0-0.1,0
		c-0.2,0.3,1.4,1.6,3.4,2.8c2.1,1.3,3.9,2,4.1,1.7c0,0,0,0,0,0c0,0,0,0,0,0l1.4-4.4l8-9.9l0.5-0.6c0.9-0.3,1.8-0.7,2.9-1.3
		c1.2-0.7,2.3-1.6,3.2-2.5c-0.9,1.6-2.2,3.1-3.9,4.5c4.9,10.6,3.6,13.5,3.6,13.5h0c0,0,0,0,0,0c0,0.4,1.6,0.6,3.5,0.6
		c1.9,0,3.5-0.3,3.5-0.6h0v-4.3l-4.5-13c5.2,0.7,10.3,0.1,15-1.4c1.1,9.6-1.9,18.1-2.1,18.6c0,0,0,0,0,0.1c0,0.4,1.9,0.6,4.2,0.6
		c2.3,0,4.2-0.3,4.2-0.6h0V131l2.1-7.2c1.8,2.4,3.5,5,4.7,8.1l0.7,3.3l0,0c0,0,0,0,0,0c0.1,0.3,1.9,0,3.9-0.7c2-0.7,3.6-1.5,3.5-1.9
		c0,0,0,0,0,0l0,0l-2.8-4l-6.6-16.9l0-0.1c-0.1-0.3-0.2-0.7-0.2-1c-0.1-0.4-0.1-0.7-0.1-1c0-0.3,0-0.5,0-0.8c0-0.2,0-0.3,0-0.5
		c0-0.3,0.1-0.5,0.1-0.7c0.2-0.8,0.5-1.4,1.1-2c0.7-0.7,1.7-1,2.9-1.1l-12.5-3.9l-0.1,0C79.7,95.6,80,90,82.2,85.4 M215.8,124.7
		l3.7-9.5c0.4,0.9,0.8,1.9,1.2,2.9L215.8,124.7z M278.3,99.1c-6.2,0.1-12.4-2.1-17.2-6.6c-0.6-0.6-1.2-1.2-1.8-1.8l-0.2-0.6
		c0.9-4.4,0.6-11.5-1.2-19.3c-2.4-10.4-6.6-18.6-10.1-20.4l-0.1-0.3L220,40.2c0,0,0,0,0,0c0,0,0,0,0,0l-0.1,0l0,0.1
		c-8.2,8.1-21.4,12.9-35.8,11.9c-3.1-0.2-6.1-0.7-8.9-1.3c-1-0.2-1.8-0.3-2.6-0.4c-0.6-0.1-1.3-0.1-1.9-0.1
		c-7.3,0-13.8,3.3-18.1,8.6c-2.8,3.3-5.3,7.6-7,12.6c-2.7,7.8-2.4,28.1-12.2,32.1c0.1-1.6-0.6-3.3-2.1-4.2c-0.1-0.1-0.5-0.3-0.6-0.3
		c-0.4-0.1-0.4-0.2-1-0.3c-0.4,0-2.2-0.4-3.8,1.7c0,0-3.9,3.7-5.5,4.6c-2.5,1.4-4.6,1.7-7.2,1.1c-2.9-1.5-1.8-3.8-3.4-10.7
		c-1.8-7.6-5.1-13.3-7.4-12.8c-0.4,0.1-0.8,0.4-1.2,0.7l-13.8-5.5c-0.6,0.4-1.3,1.3-2,2.4c0,0,0-0.1,0.1-0.1
		c-0.3,0.4-0.5,0.8-0.7,1.2c-0.3,0.6-0.7,1.3-1,2c-2,4.7-2.2,10.2,0.1,15.2l15,6.6l3.2,1.4c1.7,2.4,5,5.3,11.9,5.2
		c0.6,0,1.1-0.1,1.7-0.2c2.6-0.4,5.5-1.4,8.3-3.9c1.6-1.4,3.3-3.6,3.8-4.4c0.2-0.4,0.7-0.7,1.1-0.9c0.4-0.1,0.6-0.1,1,0.1
		c0.1,0.1,0.2,0.1,0.3,0.1c0.3,0.2,0.5,0.4,0.6,0.7c0,0,0,0,0,0c0,0,0,0,0,0c0.1,0.2,0.1,0.5,0.1,0.7c-0.2,0-0.3,0-0.5,0.1
		c0.2,0,0.3,0,0.5,0c0.1,1.2-0.7,1.8-1.2,1.9c0,0,0,0,0,0c0,0,0,0,0,0c-0.1,0-0.2,0-0.3,0c0,0,0,0,0,0c0,0,0,0,0,0c0,0,0,0,0,0
		c0,0-0.1-0.1-0.1-0.1c0,0,0,0,0,0c-0.1-0.1-0.3-0.2-0.5-0.2c-0.4,0-0.7,0.4-0.6,0.7c0.1,0.3,0.3,0.5,0.6,0.7
		c0.4,0.2,1.1,0.3,2.2-0.1c1.1-0.4,1.5-1,1.9-1.5c0.3-0.4,0.5-0.9,0.6-1.5c10.4-1.2,9.8-12.8,14.8-17.6c0.6,2.2,1.4,4.3,2.5,6.2
		c0.6,3.1,1.2,7,1.3,11.3c-0.4,22-4.9,30-4.9,30.1c0,0,0,0,0,0c0,0.6,3.2,1.1,7.2,1.1c4,0,7.2-0.5,7.2-1.1l0.4-8.2l4.6-12.3h0
		l0.6-1.6c2.5-0.6,5.1-1.6,7.6-3.1c2-1.2,3.8-2.6,5.3-4c-1.5,2.6-3.6,5.1-6.4,7.4c6.2,14.3,5.4,21.9,5.4,21.9c0,0.6,2.5,1.1,5.7,1.1
		s5.7-0.5,5.7-1.1l-0.2-7.1l-7-22c8.7-0.3,16.9-2.6,24.1-6.4c3.5,18-4.7,35.5-4.7,35.5h0c0,0.6,3.1,1.1,6.9,1.1
		c3.8,0,6.9-0.5,6.9-1.1l-0.3-2.9c0.7,0.2,1.5,0.5,2.3,0.7c3.4,0.9,6.3,1.2,6.4,0.6c0,0,0-0.1,0-0.1l8.5-15.4l-6.2-19.8
		c2.5-3.1,4.3-7.7,5.1-13l-20.3-6.1l-0.1,0c-4.6-11.3-2-24.1,6-32.7c-6,8.5-7.5,19.8-3.1,29.9l27.1,11.6l0.1,0v-7l5.6,1.1
		c1.1,2.6,2.6,5,4.5,7.3c-1.1,3.2-2.2,9.6,0.6,19.6c1,3.4,2.8,5.8,3.7,7.1c0.5,0.5,0.8,1.1,0.8,1.9c0,0.7-0.3,1.3-0.8,1.8
		c-0.1,0.1-0.3,0.2-0.4,0.3c-0.4,0.3-0.9,0.5-1.5,0.5c0,0,0,0-0.1,0c0,0,0,0,0,0c-2.9-0.1-3.6-2.1-3.5-3.2c0,0,0,0,0,0s0,0,0,0
		c0-0.2,0.1-0.4,0.2-0.4c0,0,0,0,0,0c0,0,0,0,0,0c0,0,0,0,0,0c0.1,0,0.1-0.1,0.2-0.1c0,0,0,0,0,0c0.3-0.1,0.5-0.4,0.6-0.7
		c0.2-0.6-0.2-1.3-0.8-1.3c-0.6,0-1,0.2-1.4,0.6c-0.5,0.5-1.1,1.5-1.1,3.4c0,1.9,0.6,2.9,1.3,3.8c2.1,3,7.2,3.9,10.4,1.3
		c0.1-0.1,0.7-0.6,0.8-0.8c0.4-0.5,0.5-0.5,0.9-1.4c0.2-0.6,1.8-3.1-0.5-6.8c0,0-4.8-5.6-2.8-19.6C264.5,98.5,271.5,100,278.3,99.1
		 M449.5,48.9c-7.9,0-15.1-3.1-20.5-8.1c10.7-0.8,19.2-11.2,19.2-22.1c0-0.6,0-1.1-0.1-1.7c0-0.3,0.1-0.7,0.1-1
		C448.2,7.2,441,0,432.2,0c-1.8,0-3.6,0.3-5.2,0.9c-5,1.5-8.2,5.5-10.1,5.6c-1,0.1-1.3-0.3-1.6-0.6c0,0,0,0,0,0
		c-0.4-0.5-1-0.8-1.7-0.8c-1.3,0-2.3,1-2.3,2.3c0,0.7,0.3,1.3,0.8,1.7l0,0c0.3,0.3,2.4,2.5,9.2-0.7c3.8-1.8,7.6-1.3,9.6-0.7
		c1.1,0.4,2.1,1,3,1.8c0.1,0,0.1,0.1,0.2,0.1c0.2,0.2,0.4,0.4,0.6,0.7c0.1,0.1,0.2,0.2,0.3,0.3c0.1,0.2,0.3,0.4,0.4,0.7
		c0.1,0.2,0.2,0.4,0.3,0.5c0.1,0.2,0.2,0.4,0.3,0.6c0.1,0.3,0.2,0.5,0.2,0.8c0,0.2,0.1,0.3,0.1,0.5c0.1,0.4,0.1,0.9,0.1,1.4
		c0,0.5-0.1,1-0.1,1.4c0,0.2-0.1,0.3-0.1,0.4c-0.1,0.3-0.2,0.6-0.3,0.9c-0.1,0.2-0.1,0.3-0.2,0.5c-0.1,0.3-0.2,0.5-0.4,0.7
		c-0.1,0.2-0.2,0.3-0.3,0.5c-0.2,0.2-0.3,0.4-0.5,0.6c-0.1,0.1-0.2,0.3-0.4,0.4c-0.2,0.2-0.4,0.4-0.6,0.5c-0.1,0.1-0.3,0.2-0.4,0.3
		c-0.2,0.2-0.5,0.3-0.8,0.5c-0.1,0.1-0.3,0.2-0.4,0.2c-0.9,0.4-1.8,0.6-2.8,0.7v0.1c-1,0-3-0.3-4.5-0.6c-1.6-0.3-36.1-9.8-38.7-10.5
		c0,0,0-0.1,0-0.1c0,0,0,0,0,0c-0.1,0-0.1,0-0.1,0l0,0.2c-11.8,13.1-31.3,21.7-53.4,21.7c-4.7,0-9.3-0.4-13.7-1.1
		c-2.1-0.4-3.8-0.4-5.3-0.2c-8.4,0.3-15.9,4.3-20.9,10.4c-3.4,4-6.5,9.3-8.6,15.4c-3.6,10.3-4.1,26.6-0.9,41.6
		c0.1-2.9,1-20.3,3.7-24.7c0.6,2.9,1.6,5.6,2.9,8c0.2,1.9,0.4,4.2,0.5,7c-2.1,19.1-13.6,44.2-13.6,44.2h0c0,0.7,3.9,1.3,8.7,1.3
		c4.8,0,8.7-0.6,8.7-1.3c0,0,0,0,0-0.1l0.4-10c0,0,7.1-15.2,12.7-25.2c0.1,0,0.3-0.1,0.4-0.1c0,0,0,0,0,0c3.1-0.7,6.4-2,9.6-3.9
		c2.5-1.4,4.6-3.1,6.5-4.9c-2.6,4.4-7,8.6-12.5,11.9c-1,0.6-2.1,1.2-3.2,1.7c1.8,22.2-0.6,30.5-0.6,30.5c0,0.7,3.1,1.3,6.9,1.3
		s6.9-0.6,6.9-1.3c0,0-0.4-7.1-1.1-10c0,0,2.8-15.4,8.4-33.6c9-0.4,17.6-2.7,25.3-6.3c5.5,23-6.2,50-6.2,50h0c0,0.7,3.8,1.3,8.4,1.3
		c4.6,0,8.4-0.6,8.4-1.3l-1.1-10l11.5-29.7c6,6.7,12.6,16,17.6,28.6l-0.4,11.1h0c0,0.7,3.5,1.3,7.8,1.3c4.3,0,7.8-0.6,7.8-1.3h0
		l0-10l-16.1-50.8c0.8-2.6,1.4-5.4,1.6-8.4c0.1-1.6,0.2-3.2,0.1-4.8l-29-8.7l0.2-0.9c1.3-14.7,11.1-26.9,24.5-31.8
		c-11,5.8-18.8,17-19.9,30l31.7,13.6V52c0.8,0.1,1.6,0.1,2.4,0.1c5.7,0,11.1-1.3,15.8-3.7c-2.4-3-4.2-6.3-5.6-9.9l0.1,0l0,0
		c6.5,9.3,17.3,15.3,29.4,15.3c11.2,0,21.3-5.2,27.9-13.2C464.9,45.7,457.5,48.9,449.5,48.9"/>
	<path class="st1" d="M244.1,194.2c0,3.7-2.7,6.7-6.7,6.7s-6.7-3-6.7-6.7c0-3.7,2.5-6.7,6.7-6.7
		C241.6,187.5,244.1,190.5,244.1,194.2 M249.9,194.2c0-6.9-4.8-12.3-12.1-12.3c-2.7,0-5.8,1.1-7.7,3.8l-0.4-3.3h-5.5v37.4h5.8v-16.6
		c1.7,2.6,5.4,3.3,7.8,3.3C245.5,206.6,249.9,201.1,249.9,194.2"/>
	<path class="st0" d="M439.2,249.1h-7.7V246h7.5v-2.4h-7.5v-3.2h7.7v-2.5h-10.3v13.8h10.3V249.1z M422.6,240.1
		c-1-2.1-3.3-2.7-5.4-2.7c-2.5,0-5.3,1.2-5.3,4c0,3.1,2.6,3.8,5.4,4.2c1.8,0.2,3.2,0.7,3.2,2c0,1.5-1.5,2.1-3.2,2.1
		c-1.7,0-3.3-0.7-3.9-2.2l-2.2,1.1c1,2.5,3.2,3.4,6,3.4c3.1,0,5.8-1.3,5.8-4.4c0-3.3-2.7-4-5.5-4.4c-1.7-0.2-3.1-0.5-3.1-1.7
		c0-1,0.9-1.8,2.9-1.8c1.5,0,2.8,0.7,3.3,1.5L422.6,240.1z M398.7,240c3.2,0,4.5,2.6,4.5,4.9c0,2.3-1.3,4.7-4.5,4.7
		c-3.2,0-4.5-2.4-4.5-4.7C394.1,242.6,395.5,240,398.7,240 M398.7,237.6c-4.8,0-7.1,3.6-7.1,7.3c0,3.6,2.2,7.1,7.1,7.1
		c4.8,0,7-3.6,7.1-7.1C405.8,241.2,403.4,237.6,398.7,237.6 M381.5,237.9c-2.2,0-4.3,0-6.5,0v13.8h2.6v-4.1h3.9
		C388.2,247.6,388.2,237.9,381.5,237.9 M377.6,240.3h3.9c3.3,0,3.3,4.9,0,4.9h-3.9V240.3z M364.4,240.3c1.6,0,2.4,1.1,2.4,2.2
		c0,1.1-0.7,2.2-2.4,2.2h-4v-4.4H364.4z M370,251.5l-4.2-4.7c2.6-0.5,3.5-2.4,3.5-4.3c0-2.4-1.7-4.6-5-4.6c-2.2,0-4.4,0-6.5,0v13.8
		h2.6V247h2.5l4,4.6h3.1V251.5z M348.8,237.9v7.9c0,2.4-1.2,3.8-3.4,3.8s-3.6-1.3-3.6-3.8v-7.9h-2.6v7.9c0,4.1,2.8,6.2,6.1,6.2
		c3.5,0,6-2.1,6-6.2v-7.9H348.8z M328.5,237.9c-2.2,0-4.3,0-6.5,0v13.8h2.6v-4.1h3.9C335.3,247.6,335.2,237.9,328.5,237.9
		 M324.6,240.3h3.9c3.3,0,3.3,4.9,0,4.9h-3.9V240.3z M308.2,249.1h-7.7V246h7.5v-2.4h-7.5v-3.2h7.7v-2.5h-10.3v13.8h10.3V249.1z
		 M285.5,251.6h2.6v-11.4h4.4v-2.4h-11.3v2.4h4.4V251.6z M274,246.6h-5.1l2.6-5.9L274,246.6z M276.2,251.6h2.8l-6.2-13.8H270
		l-6.2,13.8h2.8l1.2-2.6h7.2L276.2,251.6z M254.6,240.3c1.6,0,2.4,1.1,2.4,2.2c0,1.1-0.7,2.2-2.4,2.2h-4v-4.4H254.6z M260.3,251.5
		l-4.2-4.7c2.6-0.5,3.5-2.4,3.5-4.3c0-2.4-1.7-4.6-5-4.6c-2.2,0-4.4,0-6.5,0v13.8h2.6V247h2.5l4,4.6h3.1V251.5z M235.2,240
		c3.2,0,4.5,2.6,4.5,4.9c0,2.3-1.3,4.7-4.5,4.7s-4.5-2.4-4.5-4.7C230.6,242.6,231.9,240,235.2,240 M235.2,237.6
		c-4.8,0-7.1,3.6-7.1,7.3c0,3.6,2.2,7.1,7.1,7.1c4.8,0,7-3.6,7.1-7.1C242.3,241.2,239.9,237.6,235.2,237.6 M218,237.9
		c-2.2,0-4.3,0-6.5,0v13.8h2.6v-4.1h3.9C224.7,247.6,224.7,237.9,218,237.9 M214.1,240.3h3.9c3.3,0,3.3,4.9,0,4.9h-3.9V240.3z
		 M200.8,240.3c1.6,0,2.4,1.1,2.4,2.2c0,1.1-0.7,2.2-2.4,2.2h-4v-4.4H200.8z M206.5,251.5l-4.2-4.7c2.6-0.5,3.5-2.4,3.5-4.3
		c0-2.4-1.7-4.6-5-4.6c-2.2,0-4.4,0-6.5,0v13.8h2.6V247h2.5l4,4.6h3.1V251.5z M181.4,240c3.2,0,4.5,2.6,4.5,4.9
		c0,2.3-1.3,4.7-4.5,4.7s-4.5-2.4-4.5-4.7C176.8,242.6,178.1,240,181.4,240 M181.4,237.6c-4.8,0-7.1,3.6-7.1,7.3
		c0,3.6,2.2,7.1,7.1,7.1c4.8,0,7-3.6,7.1-7.1C188.5,241.2,186.1,237.6,181.4,237.6 M167.7,248.1c-0.9,0.9-2.3,1.4-3.5,1.4
		c-3.4,0-4.7-2.4-4.7-4.7c0-2.3,1.4-4.8,4.7-4.8c1.2,0,2.4,0.4,3.3,1.3l1.7-1.7c-1.4-1.4-3.2-2.1-5.1-2.1c-5,0-7.3,3.7-7.3,7.3
		c0,3.6,2.2,7.1,7.3,7.1c2,0,3.8-0.6,5.2-2L167.7,248.1z M134.1,240.3h2.8c3,0,4.2,2.1,4.3,4.3c0.1,2.2-1.2,4.5-4.3,4.5h-2.8V240.3z
		 M136.9,237.9h-5.4v13.8h5.4c4.8,0,6.9-3.5,6.9-7C143.8,241.2,141.7,237.9,136.9,237.9 M122.8,246.4l-6.7-8.5H114v13.8h2.6v-9.3
		l7.2,9.3h1.6v-13.8h-2.6V246.4z M100.9,240c3.2,0,4.5,2.6,4.5,4.9c0,2.3-1.3,4.7-4.5,4.7c-3.2,0-4.5-2.4-4.5-4.7
		C96.3,242.6,97.6,240,100.9,240 M100.9,237.6c-4.8,0-7.1,3.6-7.1,7.3c0,3.6,2.2,7.1,7.1,7.1c4.8,0,7-3.6,7.1-7.1
		C108,241.2,105.6,237.6,100.9,237.6 M79,237.9h-3.1v0.1l5.3,8v5.7h2.6v-5.7l5.5-8v-0.1h-3.1l-3.7,5.7L79,237.9z M70.4,249.1h-7.7
		V246h7.5v-2.4h-7.5v-3.2h7.7v-2.5H60.1v13.8h10.3V249.1z M49.2,237.9h-6.5v13.8h6.5c2.9,0,5.2-1,5.2-4.1c0-0.9-0.6-2.6-2.2-3.1
		c1.3-0.6,1.8-1.6,1.8-2.7C53.9,239.1,51.9,237.9,49.2,237.9 M45.2,240.2h4c1.7,0,2.2,1.1,2.2,1.7c0,0.8-0.5,1.5-2.2,1.5h-4V240.2z
		 M45.2,245.7h4c1.1,0,2.6,0.6,2.6,1.9c0,1.3-1.5,1.7-2.6,1.7h-4V245.7z"/>
	<path class="st1" d="M171.8,191.4h-12.7c0.9-3.1,3.4-4.6,6.6-4.6C169.1,186.9,171.5,188.4,171.8,191.4 M165.5,181.7
		c-7.7,0-12.5,5.2-12.5,12.3c0,7.6,4.8,12.6,13,12.6c3.6,0,7.7-1.2,10.1-3.8l-3.7-3.7c-1.3,1.4-4.2,2.2-6.3,2.2c-4.1,0-6.6-2.1-7-5
		h18.4C178.4,186.6,173.4,181.7,165.5,181.7"/>
	<rect x="183.1" y="172.6" class="st1" width="5.8" height="33.4"/>
	<path class="st1" d="M213,191.4h-12.7c0.9-3.1,3.4-4.6,6.6-4.6C210.3,186.9,212.6,188.4,213,191.4 M206.7,181.7
		c-7.7,0-12.5,5.2-12.5,12.3c0,7.6,4.8,12.6,13,12.6c3.6,0,7.7-1.2,10.1-3.8l-3.7-3.7c-1.3,1.4-4.2,2.2-6.3,2.2c-4.1,0-6.6-2.1-7-5
		h18.4C219.5,186.6,214.6,181.7,206.7,181.7"/>
	<path class="st1" d="M255.4,172.5V206h5.8v-12.1c0-3.5,2.4-6.5,5.8-6.5c3.1,0,5.4,1.8,5.4,6.1V206h5.8v-12.4c0-6.9-3-11.5-9.7-11.5
		c-2.7,0-5.3,0.8-7.4,3.5v-13.1H255.4z"/>
	<path class="st1" d="M295.9,201.3c-3.9,0-7-2.7-7-7.2c0-4.5,3.1-7.1,7-7.1C305.1,187,305.1,201.3,295.9,201.3 M308.7,206v-23.6
		h-5.6l-0.2,3.3c-1.3-2.3-4.4-3.8-7.5-3.8c-6.9,0-12.3,4.2-12.3,12.3c0,8.3,5.2,12.6,12.1,12.5c2.6,0,6.3-1.4,7.7-4.2l0.3,3.4H308.7
		z"/>
	<path class="st1" d="M338,206v-12.4c0-7.4-4.4-11.6-10-11.6c-3,0-5.4,1.2-7.7,3.5l-0.4-3.2h-5.2V206h5.8v-12.1c0-3.6,2.4-6.6,6-6.6
		c3.7,0,5.7,2.7,5.7,6.3V206H338z"/>
	<path class="st1" d="M345.6,176.4v6.1h-4.4v5h4.4v10.2c0,5.9,3.3,8.8,8.5,8.6c1.8,0,3.2-0.3,4.8-1l-1.6-5c-0.9,0.4-1.9,0.7-2.8,0.7
		c-1.8,0-3.1-1.1-3.1-3.3v-10.2h6.6v-5h-6.5v-6.7L345.6,176.4z"/>
	<path class="st0" d="M142.7,194.2c0,3.7-2.7,6.7-6.7,6.7s-6.7-3-6.7-6.7c0-3.7,2.5-6.7,6.7-6.7
		C140.2,187.5,142.7,190.5,142.7,194.2 M148.6,194.2c0-6.9-4.8-12.3-12.1-12.3c-2.7,0-5.8,1.1-7.7,3.8l-0.4-3.3H123v37.4h5.8v-16.6
		c1.7,2.6,5.4,3.3,7.8,3.3C144.2,206.6,148.6,201.1,148.6,194.2"/>
	<path class="st0" d="M450.2,206v-12.6c0-3.1,2-5.8,5.1-5.8c3.2,0,4.4,2.6,4.4,5.7V206h5.8v-12.7c0-7.1-3.3-11.2-10-11.2
		c-3.1,0-5.8,1-7.9,4.3c-1.3-3.3-4.2-4.4-7-4.4c-2.2,0-5,0.9-6.2,3.3l-0.4-2.9h-5.4V206h5.8v-12.6c0-3.1,1.9-5.9,5-5.9
		c3.2,0,4.8,2.8,4.8,5.9V206H450.2z M411.2,187.2c3.9,0,6.4,3.4,6.4,7c0,3.6-2.2,6.9-6.4,6.9c-4.3,0-6.4-3.3-6.4-6.9
		C404.8,190.7,407,187.2,411.2,187.2 M411.1,181.9c-7.5,0-12.2,5.5-12.2,12.3c0,6.8,4.6,12.3,12.2,12.3c7.7,0,12.3-5.5,12.3-12.3
		C423.5,187.5,418.6,181.9,411.1,181.9 M391.9,199.1c-1.4,1.4-3.3,2-5.2,2c-3.6,0-6.7-2.4-6.7-6.9c0-4.1,2.9-7,6.8-7
		c1.6,0,3.3,0.6,4.7,1.9l3.7-3.9c-2.6-2.5-5.2-3.5-8.5-3.5c-6.8,0-12.5,4.1-12.5,12.5c0,8.4,5.7,12.5,12.5,12.5
		c3.5,0,6.4-1.1,9.1-3.7L391.9,199.1z M363.3,203c0,4.5,6.9,4.5,6.9,0C370.2,198.4,363.3,198.4,363.3,203"/>
	<path class="st0" d="M42.5,182.4V206h5.8v-12.4c0-4.4,2.8-6,5.9-6c1.9,0,3,0.5,4.2,1.5l2.6-5.1c-1.3-1.3-3.6-2.2-6.1-2.2
		c-2.4,0-4.8,0.4-6.6,3.3l-0.4-2.7H42.5z"/>
	<path class="st0" d="M82,194.2c0,3.6-2.2,6.9-6.4,6.9c-4.3,0-6.4-3.3-6.4-6.9c0-3.5,2.2-7,6.4-7C79.5,187.2,82,190.7,82,194.2
		 M87.9,194.2c0-6.7-4.8-12.3-12.3-12.3c-7.5,0-12.2,5.5-12.2,12.3c0,6.8,4.6,12.3,12.2,12.3C83.3,206.5,87.9,201,87.9,194.2"/>
	<path class="st0" d="M93.3,182.4v12.4c0,7.3,4.1,11.6,9.8,11.6c3.3,0,5.5-1.1,8-3.5l0.4,3.2h5.2v-23.6h-5.8v12.1
		c0,3.6-2.4,6.6-6,6.6c-3.7,0-5.7-2.7-5.7-6.3v-12.3H93.3z"/>
	<path class="st0" d="M31,194.2c0,3.7-2.7,6.7-6.7,6.7s-6.7-3-6.7-6.7c0-3.7,2.5-6.7,6.7-6.7S31,190.5,31,194.2 M37.4,209.5v-27.1
		h-5.5l-0.4,3.3c-1.8-2.6-5-3.8-7.7-3.8c-7.3,0-12.1,5.4-12.1,12.3c0,6.9,4.4,12.3,11.9,12.3c2.5,0,6.2-0.8,7.8-3.3v5.4
		c-0.1,3.4-2.9,6-6.9,6c-3.6,0-6.4-2.3-6.9-5.1h-5.8c0.5,6.3,5.8,10.3,12.8,10.3C32,219.8,37.4,215.2,37.4,209.5L37.4,209.5z"/>
	<path class="st1" d="M481,176.6h1.6v-8.5h-1.8l-2.7,3.7l-2.7-3.7h-1.9v8.5h1.6v-6.2l2.7,3.7h0.3l2.8-3.7V176.6z M468.3,176.6h1.6
		v-7.1h2.7V168h-7v1.5h2.7V176.6z"/>
</g>
</svg>
